<?xml version="1.0" encoding="utf-8"?>
<!-- Generator: Adobe Illustrator 24.0.1, SVG Export Plug-In . SVG Version: 6.00 Build 0)  -->
<svg version="1.1" id="圖層_1" xmlns="http://www.w3.org/2000/svg" xmlns:xlink="http://www.w3.org/1999/xlink" x="0px" y="0px"
	 viewBox="0 0 30 30" style="enable-background:new 0 0 30 30;" xml:space="preserve">
<style type="text/css">
	.st0{fill:#D2C3D9;}
	.st1{fill:none;stroke:#EBE4F4;stroke-miterlimit:10;}
	.st2{fill:#5A157A;}
	.st3{fill:#5A157A;stroke:#5A157A;stroke-miterlimit:10;}
	.st4{opacity:0.99;fill:#EBE4F4;stroke:#5A157A;stroke-miterlimit:10;}
	.st5{fill:none;stroke:#5A157A;stroke-miterlimit:10;}
	.st6{fill:none;stroke:#D2C3D9;stroke-miterlimit:10;}
</style>
<g>
	<path class="st0" d="M29,1v28H1V1H29 M30,0H0v30h30V0L30,0z"/>
</g>
<g>
	<path class="st2" d="M15,8v5V8 M16,7h-2v7h2V7L16,7z"/>
</g>
<path class="st3" d="M13.62,3.61c0.21,0,1.74,0.05,2.74,1.33c0.65,0.83,0.73,1.72,0.74,2.05c0.01,0.26,0.07,2.13-1.27,2.77
	c-0.67,0.33-1.65,0.32-2.37-0.31c-0.61-0.53-0.85-1.38-0.74-2.05c0.15-0.85,0.79-0.99,1.05-1.89C13.99,4.77,13.8,4.06,13.62,3.61z"
	/>
<path class="st4" d="M22.47,14H7.53C6.13,14,5,15.13,5,16.53V26h20v-9.47C25,15.13,23.87,14,22.47,14z"/>
<g>
	<line class="st5" x1="5.5" y1="16.5" x2="24.5" y2="16.5"/>
</g>
<path class="st3" d="M24.5,16.5c-0.27,1.53-0.67,1.93-1,2c-0.51,0.11-0.84-0.78-2-1c-0.12-0.02-0.51-0.09-1,0c-1.16,0.21-1.26,1-2,1
	s-0.84-0.79-2-1c-0.19-0.03-0.55-0.1-1,0c-0.9,0.19-1.09,0.81-2,1c-0.44,0.09-0.8,0.04-1,0c-0.95-0.16-1.05-0.68-2-1
	c-0.28-0.1-1.24-0.42-2,0c-0.62,0.34-0.6,0.91-1,1c-0.37,0.09-0.97-0.26-2-2"/>
</svg>
